<?xml version="1.0" encoding="utf-8"?>
<!-- Generator: Adobe Illustrator 17.0.0, SVG Export Plug-In . SVG Version: 6.00 Build 0)  -->
<!DOCTYPE svg PUBLIC "-//W3C//DTD SVG 1.1//EN" "http://www.w3.org/Graphics/SVG/1.1/DTD/svg11.dtd">
<svg version="1.1" id="图层_1" xmlns="http://www.w3.org/2000/svg" xmlns:xlink="http://www.w3.org/1999/xlink" x="0px" y="0px"
	 width="20px" height="20px" viewBox="0 0 20 20" enable-background="new 0 0 20 20" xml:space="preserve">
<g>
	<g>
		<path fill="#EF4276" d="M15.106,2.553h-1.915V2.34c0-1.294-1.047-2.34-2.34-2.34H9.149c-1.294,0-2.34,1.047-2.34,2.34v0.213H4.894
			c-1.294,0-2.34,1.047-2.34,2.34V6.17c0,0.511,0.366,0.945,0.851,1.038V17.66c0,1.294,1.047,2.34,2.34,2.34h8.511
			c1.294,0,2.34-1.047,2.34-2.34V7.208c0.485-0.094,0.851-0.528,0.851-1.038V4.894C17.447,3.6,16.4,2.553,15.106,2.553z M8.085,2.34
			c0-0.587,0.477-1.064,1.064-1.064h1.702c0.587,0,1.064,0.477,1.064,1.064v0.213h-3.83V2.34z M15.319,17.66
			c0,0.587-0.477,1.064-1.064,1.064H5.745c-0.587,0-1.064-0.477-1.064-1.064V7.234h10.638V17.66z M16.17,5.957H3.83V4.894
			c0-0.587,0.477-1.064,1.064-1.064h10.213c0.587,0,1.064,0.477,1.064,1.064V5.957z"/>
	</g>
	<g>
		<g>
			<path fill="#EF4276" d="M10,17.021c-0.352,0-0.638-0.286-0.638-0.638V9.574c0-0.352,0.286-0.638,0.638-0.638
				c0.352,0,0.638,0.286,0.638,0.638v6.809C10.638,16.735,10.352,17.021,10,17.021z"/>
		</g>
		<g>
			<path fill="#EF4276" d="M7.021,17.021c-0.352,0-0.638-0.286-0.638-0.638V9.574c0-0.352,0.286-0.638,0.638-0.638
				S7.66,9.222,7.66,9.574v6.809C7.66,16.735,7.374,17.021,7.021,17.021z"/>
		</g>
		<g>
			<path fill="#EF4276" d="M12.979,17.021c-0.352,0-0.638-0.286-0.638-0.638V9.574c0-0.352,0.286-0.638,0.638-0.638
				c0.352,0,0.638,0.286,0.638,0.638v6.809C13.617,16.735,13.331,17.021,12.979,17.021z"/>
		</g>
	</g>
</g>
</svg>
